<svg width="24" height="24" viewBox="0 0 24 24" fill="none" xmlns="http://www.w3.org/2000/svg">
<g clip-path="url(#clip0_277_3007)">
<path fill-rule="evenodd" clip-rule="evenodd" d="M18.8864 7.20102C18.9585 7.26813 19.0166 7.34877 19.0576 7.43836C19.0985 7.52795 19.1214 7.62472 19.1249 7.72315C19.1284 7.82158 19.1125 7.91974 19.0781 8.01203C19.0437 8.10432 18.9915 8.18893 18.9244 8.26102L11.2444 16.511C11.1742 16.5864 11.0892 16.6466 10.9947 16.6877C10.9003 16.7288 10.7984 16.75 10.6954 16.75C10.5923 16.75 10.4904 16.7288 10.396 16.6877C10.3015 16.6466 10.2165 16.5864 10.1464 16.511L5.82636 11.871C5.75918 11.7989 5.70687 11.7143 5.6724 11.622C5.63794 11.5297 5.62199 11.4315 5.62547 11.333C5.62895 11.2345 5.6518 11.1377 5.6927 11.0481C5.7336 10.9584 5.79176 10.8777 5.86386 10.8105C5.93595 10.7433 6.02057 10.691 6.11288 10.6566C6.2052 10.6221 6.3034 10.6062 6.40187 10.6096C6.50035 10.6131 6.59718 10.636 6.68682 10.6769C6.77647 10.7178 6.85718 10.7759 6.92436 10.848L10.6954 14.899L17.8264 7.23902C17.8935 7.16692 17.9741 7.10875 18.0637 7.06782C18.1533 7.02689 18.2501 7.00401 18.3485 7.00048C18.4469 6.99695 18.5451 7.01285 18.6374 7.04726C18.7297 7.08166 18.8143 7.13391 18.8864 7.20102V7.20102Z" fill="white"/>
</g>
<defs>
<clipPath id="clip0_277_3007">
<rect width="24" height="24" fill="white"/>
</clipPath>
</defs>
</svg>
