<svg width="24" height="25" viewBox="0 0 24 25" fill="none" xmlns="http://www.w3.org/2000/svg">
<path d="M14 19.7139H19V5.71387H5V19.7139H12V14.7139H10V12.7139H12V11.0599C12 9.72287 12.14 9.23787 12.4 8.74887C12.6561 8.26505 13.052 7.86956 13.536 7.61387C13.918 7.40887 14.393 7.28587 15.223 7.23287C15.552 7.21187 15.978 7.23787 16.501 7.31287V9.21287H16C15.083 9.21287 14.704 9.25587 14.478 9.37687C14.3431 9.44622 14.2334 9.55601 14.164 9.69087C14.044 9.91687 14 10.1409 14 11.0589V12.7139H16.5L16 14.7139H14V19.7139ZM4 3.71387H20C20.2652 3.71387 20.5196 3.81922 20.7071 4.00676C20.8946 4.1943 21 4.44865 21 4.71387V20.7139C21 20.9791 20.8946 21.2334 20.7071 21.421C20.5196 21.6085 20.2652 21.7139 20 21.7139H4C3.73478 21.7139 3.48043 21.6085 3.29289 21.421C3.10536 21.2334 3 20.9791 3 20.7139V4.71387C3 4.44865 3.10536 4.1943 3.29289 4.00676C3.48043 3.81922 3.73478 3.71387 4 3.71387Z" fill="white"/>
</svg>
