<svg width="24" height="25" viewBox="0 0 24 25" fill="none" xmlns="http://www.w3.org/2000/svg">
<path d="M12 9.71387C11.2044 9.71387 10.4413 10.0299 9.87868 10.5925C9.31607 11.1552 9 11.9182 9 12.7139C9 13.5095 9.31607 14.2726 9.87868 14.8352C10.4413 15.3978 11.2044 15.7139 12 15.7139C12.7956 15.7139 13.5587 15.3978 14.1213 14.8352C14.6839 14.2726 15 13.5095 15 12.7139C15 11.9182 14.6839 11.1552 14.1213 10.5925C13.5587 10.0299 12.7956 9.71387 12 9.71387ZM12 7.71387C13.3261 7.71387 14.5979 8.24065 15.5355 9.17833C16.4732 10.116 17 11.3878 17 12.7139C17 14.0399 16.4732 15.3117 15.5355 16.2494C14.5979 17.1871 13.3261 17.7139 12 17.7139C10.6739 17.7139 9.40215 17.1871 8.46447 16.2494C7.52678 15.3117 7 14.0399 7 12.7139C7 11.3878 7.52678 10.116 8.46447 9.17833C9.40215 8.24065 10.6739 7.71387 12 7.71387ZM18.5 7.46387C18.5 7.79539 18.3683 8.11333 18.1339 8.34775C17.8995 8.58217 17.5815 8.71387 17.25 8.71387C16.9185 8.71387 16.6005 8.58217 16.3661 8.34775C16.1317 8.11333 16 7.79539 16 7.46387C16 7.13235 16.1317 6.8144 16.3661 6.57998C16.6005 6.34556 16.9185 6.21387 17.25 6.21387C17.5815 6.21387 17.8995 6.34556 18.1339 6.57998C18.3683 6.8144 18.5 7.13235 18.5 7.46387ZM12 4.71387C9.526 4.71387 9.122 4.72087 7.971 4.77187C7.187 4.80887 6.661 4.91387 6.173 5.10387C5.739 5.27187 5.426 5.47287 5.093 5.80687C4.78001 6.10927 4.53935 6.47845 4.389 6.88687C4.199 7.37687 4.094 7.90187 4.058 8.68487C4.006 9.78887 4 10.1749 4 12.7139C4 15.1879 4.007 15.5919 4.058 16.7429C4.095 17.5259 4.2 18.0529 4.389 18.5399C4.559 18.9749 4.759 19.2879 5.091 19.6199C5.428 19.9559 5.741 20.1569 6.171 20.3229C6.665 20.5139 7.191 20.6199 7.971 20.6559C9.075 20.7079 9.461 20.7139 12 20.7139C14.474 20.7139 14.878 20.7069 16.029 20.6559C16.811 20.6189 17.338 20.5139 17.826 20.3249C18.259 20.1559 18.574 19.9549 18.906 19.6229C19.243 19.2859 19.444 18.9729 19.61 18.5429C19.8 18.0499 19.906 17.5229 19.942 16.7429C19.994 15.6389 20 15.2529 20 12.7139C20 10.2399 19.993 9.83587 19.942 8.68487C19.905 7.90287 19.8 7.37487 19.61 6.88687C19.4593 6.47887 19.2191 6.10983 18.907 5.80687C18.6047 5.49371 18.2355 5.25303 17.827 5.10287C17.337 4.91287 16.811 4.80787 16.029 4.77187C14.925 4.71987 14.539 4.71387 12 4.71387ZM12 2.71387C14.717 2.71387 15.056 2.72387 16.122 2.77387C17.187 2.82387 17.912 2.99087 18.55 3.23887C19.21 3.49287 19.766 3.83687 20.322 4.39187C20.8305 4.89176 21.224 5.49646 21.475 6.16387C21.722 6.80087 21.89 7.52687 21.94 8.59187C21.987 9.65787 22 9.99687 22 12.7139C22 15.4309 21.99 15.7699 21.94 16.8359C21.89 17.9009 21.722 18.6259 21.475 19.2639C21.2247 19.9316 20.8311 20.5365 20.322 21.0359C19.822 21.5442 19.2173 21.9376 18.55 22.1889C17.913 22.4359 17.187 22.6039 16.122 22.6539C15.056 22.7009 14.717 22.7139 12 22.7139C9.283 22.7139 8.944 22.7039 7.878 22.6539C6.813 22.6039 6.088 22.4359 5.45 22.1889C4.78233 21.9383 4.17753 21.5448 3.678 21.0359C3.16941 20.5361 2.77593 19.9313 2.525 19.2639C2.277 18.6269 2.11 17.9009 2.06 16.8359C2.013 15.7699 2 15.4309 2 12.7139C2 9.99687 2.01 9.65787 2.06 8.59187C2.11 7.52587 2.277 6.80187 2.525 6.16387C2.77524 5.49605 3.1688 4.89119 3.678 4.39187C4.17767 3.8831 4.78243 3.4896 5.45 3.23887C6.088 2.99087 6.812 2.82387 7.878 2.77387C8.944 2.72687 9.283 2.71387 12 2.71387Z" fill="white"/>
</svg>
