<svg width="24" height="25" viewBox="0 0 24 25" fill="none" xmlns="http://www.w3.org/2000/svg">
<path d="M7.764 19.9389C8.354 19.6789 9.014 19.6299 9.632 19.7999C10.402 20.0099 11.197 20.1159 12 20.1139C16.585 20.1139 20 16.8269 20 12.4139C20 8.00087 16.585 4.71387 12 4.71387C7.415 4.71387 4 8.00087 4 12.4139C4 14.6839 4.896 16.6859 6.466 18.0899C6.75126 18.3425 6.98194 18.6508 7.14391 18.9957C7.30589 19.3406 7.39575 19.715 7.408 20.0959L7.764 19.9389ZM12 2.71387C17.634 2.71387 22 6.84087 22 12.4139C22 17.9869 17.634 22.1139 12 22.1139C11.0221 22.1164 10.0484 21.9872 9.105 21.7299C8.9278 21.6811 8.73924 21.6949 8.571 21.7689L6.587 22.6449C6.46713 22.6978 6.33608 22.7206 6.20537 22.711C6.07467 22.7015 5.94831 22.66 5.8374 22.5901C5.72649 22.5203 5.63444 22.4243 5.56933 22.3106C5.50422 22.1968 5.46805 22.0689 5.464 21.9379L5.409 20.1579C5.4054 20.0496 5.37977 19.9433 5.3337 19.8453C5.28762 19.7473 5.22205 19.6597 5.141 19.5879C3.195 17.8489 2 15.3309 2 12.4139C2 6.84087 6.367 2.71387 12 2.71387ZM5.995 15.2509L8.932 10.5909C9.0425 10.4154 9.18818 10.2648 9.35984 10.1485C9.53149 10.0322 9.7254 9.95272 9.92931 9.91514C10.1332 9.87755 10.3427 9.88265 10.5445 9.9301C10.7464 9.97756 10.9362 10.0664 11.102 10.1909L13.438 11.9409C13.5421 12.0195 13.669 12.062 13.7995 12.062C13.93 12.062 14.0569 12.0195 14.161 11.9409L17.316 9.54487C17.737 9.22587 18.287 9.72987 18.005 10.1779L15.068 14.8379C14.9575 15.0133 14.8118 15.1639 14.6402 15.2802C14.4685 15.3966 14.2746 15.476 14.0707 15.5136C13.8668 15.5512 13.6573 15.5461 13.4555 15.4986C13.2536 15.4512 13.0638 15.3624 12.898 15.2379L10.562 13.4879C10.4579 13.4093 10.331 13.3667 10.2005 13.3667C10.07 13.3667 9.94313 13.4093 9.839 13.4879L6.684 15.8829C6.263 16.2019 5.713 15.6979 5.995 15.2499V15.2509Z" fill="white"/>
</svg>
