<svg width="19" height="18" viewBox="0 0 19 18" fill="none" xmlns="http://www.w3.org/2000/svg">
<path d="M17 12.6901V14.9401C17.0009 15.1489 16.9581 15.3557 16.8744 15.5471C16.7907 15.7385 16.668 15.9103 16.5141 16.0515C16.3602 16.1927 16.1784 16.3002 15.9806 16.3671C15.7827 16.434 15.573 16.4589 15.365 16.4401C13.0571 16.1893 10.8403 15.4007 8.89251 14.1376C7.08038 12.9861 5.54401 11.4497 4.39251 9.63757C3.12499 7.68098 2.33619 5.45332 2.09001 3.13507C2.07127 2.92767 2.09592 2.71864 2.16239 2.52129C2.22886 2.32394 2.33569 2.14259 2.47609 1.98879C2.61648 1.83499 2.78736 1.7121 2.97785 1.62796C3.16834 1.54382 3.37427 1.50027 3.58251 1.50007H5.83251C6.19649 1.49649 6.54935 1.62538 6.82533 1.86272C7.10131 2.10006 7.28157 2.42966 7.33251 2.79007C7.42748 3.51012 7.6036 4.21712 7.85751 4.89757C7.95842 5.16602 7.98026 5.45776 7.92044 5.73823C7.86062 6.01871 7.72166 6.27616 7.52001 6.48007L6.56751 7.43257C7.63518 9.31023 9.18985 10.8649 11.0675 11.9326L12.02 10.9801C12.2239 10.7784 12.4814 10.6395 12.7619 10.5796C13.0423 10.5198 13.3341 10.5417 13.6025 10.6426C14.283 10.8965 14.99 11.0726 15.71 11.1676C16.0743 11.219 16.4071 11.4025 16.6449 11.6832C16.8828 11.9639 17.0091 12.3223 17 12.6901Z" stroke="white" stroke-width="1.7" stroke-linecap="round" stroke-linejoin="round"/>
</svg>
